<svg width="64" height="64" viewBox="0 0 64 64" fill="none" xmlns="http://www.w3.org/2000/svg">
<path d="M34.6668 18.6667L31.6921 12.7171C30.8359 11.0048 30.4078 10.1486 29.7692 9.5231C29.2044 8.96995 28.5237 8.54926 27.7764 8.29149C26.9313 8 25.974 8 24.0596 8H13.8668C10.8799 8 9.38641 8 8.24555 8.5813C7.24202 9.09262 6.42612 9.90852 5.91479 10.9121C5.3335 12.0529 5.3335 13.5464 5.3335 16.5333V18.6667M5.3335 18.6667H45.8668C50.3473 18.6667 52.5875 18.6667 54.2988 19.5386C55.804 20.3056 57.0279 21.5294 57.7949 23.0347C58.6668 24.746 58.6668 26.9862 58.6668 31.4667V43.2C58.6668 47.6804 58.6668 49.9206 57.7949 51.6319C57.0279 53.1372 55.804 54.3611 54.2988 55.1281C52.5875 56 50.3473 56 45.8668 56H18.1335C13.6531 56 11.4129 56 9.70157 55.1281C8.19628 54.3611 6.97243 53.1372 6.20544 51.6319C5.3335 49.9206 5.3335 47.6804 5.3335 43.2V18.6667Z" stroke="#153084" stroke-width="2" stroke-linecap="round" stroke-linejoin="round"/>
</svg>