<svg width="64" height="64" viewBox="0 0 64 64" fill="none" xmlns="http://www.w3.org/2000/svg">
<path d="M34.6667 29.3333H47.4667C50.4537 29.3333 51.9471 29.3333 53.088 29.9146C54.0915 30.426 54.9074 31.2419 55.4187 32.2454C56 33.3862 56 34.8797 56 37.8667V56M34.6667 56V16.5333C34.6667 13.5464 34.6667 12.0529 34.0854 10.9121C33.5741 9.90852 32.7582 9.09262 31.7547 8.5813C30.6138 8 29.1203 8 26.1334 8H16.5334C13.5464 8 12.053 8 10.9121 8.5813C9.90856 9.09262 9.09266 9.90852 8.58134 10.9121C8.00004 12.0529 8.00004 13.5464 8.00004 16.5333V56M58.6667 56H5.33337M17.3334 18.6667H25.3334M17.3334 29.3333H25.3334M17.3334 40H25.3334" stroke="#153084" stroke-width="2" stroke-linecap="round" stroke-linejoin="round"/>
</svg>
