<?xml version="1.0" encoding="UTF-8" standalone="no"?>
<svg height="100%" version="1.1" width="100%" xmlns:svg="http://www.w3.org/2000/svg" xmlns="http://www.w3.org/2000/svg" viewBox="0 0 1757.17 578.39502" id="ckan-logo">
    <g>
        <path
            fill="#231f20"
            class="text"
            d="m 802.594,505.1919 c -26.93,0 -50.547,-4.2774 -70.84,-12.8242 -20.309,-8.543 -37.406,-20.5157 -51.289,-35.9067 -13.899,-15.382 -24.266,-33.652 -31.094,-54.804 -6.844,-21.164 -10.262,-44.563 -10.262,-70.207 0,-25.645 3.739,-49.145 11.223,-70.52 7.473,-21.367 18.051,-39.851 31.734,-55.457 13.672,-15.594 30.454,-27.777 50.329,-36.543 19.871,-8.754 41.992,-13.137 66.351,-13.137 14.953,0 29.91,1.278 44.875,3.84 14.957,2.571 29.27,6.637 42.957,12.184 l -13.465,50.648 c -8.976,-4.265 -19.343,-7.695 -31.093,-10.258 -11.762,-2.562 -24.262,-3.847 -37.504,-3.847 -33.34,0 -58.879,10.48 -76.61,31.418 -17.738,20.941 -26.605,51.504 -26.605,91.672 0,17.949 2.019,34.406 6.086,49.367 4.058,14.961 10.468,27.793 19.234,38.465 8.754,10.695 19.977,18.918 33.656,24.679 13.676,5.77 30.344,8.653 50.004,8.653 15.813,0 30.133,-1.485 42.957,-4.485 12.821,-2.976 22.86,-6.191 30.129,-9.617 l 8.336,50.008 c -3.422,2.1406 -8.336,4.1719 -14.746,6.0859 -6.41,1.9336 -13.68,3.6328 -21.797,5.1368 -8.125,1.4843 -16.777,2.7734 -25.961,3.8476 -9.199,1.0547 -18.062,1.6016 -26.605,1.6016" />
        <path
            fill="#231f20"
            class="text"
            d="m 1043.01,314.137 c 12.81,9.844 26.37,22.02 40.7,36.543 14.32,14.539 28.42,30.242 42.32,47.129 13.87,16.883 27.02,33.973 39.42,51.289 12.39,17.305 22.86,33.4376 31.42,48.3986 l -69.88,0 c -8.98,-14.961 -19.35,-30.2346 -31.09,-45.8396 -11.77,-15.598 -24.04,-30.547 -36.88,-44.883 -12.81,-14.309 -25.86,-27.453 -39.1,-39.414 -13.25,-11.973 -25.861,-22.012 -37.826,-30.137 l 0,160.2736 -59.617,0 0,-487.2386 L 982.094,0 l 0,303.883 c 10.261,-10.254 21.576,-21.578 33.976,-33.976 12.4,-12.391 24.57,-25.004 36.55,-37.825 11.96,-12.824 23.29,-25.105 33.98,-36.867 10.68,-11.746 19.86,-22.113 27.56,-31.09 l 69.88,0 c -9.84,10.684 -20.51,22.438 -32.05,35.262 -11.54,12.82 -23.51,25.75 -35.91,38.781 -12.39,13.043 -24.9,26.075 -37.5,39.11 -12.6,13.047 -24.47,25.324 -35.57,36.859" />
        <path
            fill="#231f20"
            class="text"
            d="m 1318.67,454.547 c 14.1,0 26.6,-0.332 37.5,-0.968 10.9,-0.633 19.98,-1.805 27.25,-3.524 l 0,-99.375 c -4.28,-2.129 -11.22,-3.945 -20.84,-5.449 -9.61,-1.484 -21.26,-2.246 -34.94,-2.246 -8.97,0 -18.49,0.644 -28.53,1.933 -10.05,1.278 -19.23,3.954 -27.57,8.008 -8.33,4.063 -15.28,9.617 -20.83,16.668 -5.55,7.051 -8.33,16.348 -8.33,27.891 0,21.379 6.83,36.222 20.51,44.562 13.67,8.328 32.27,12.5 55.78,12.5 z m -5.13,-298.754 c 23.93,0 44.13,3.102 60.58,9.289 16.45,6.204 29.71,14.969 39.75,26.29 10.04,11.328 17.2,24.793 21.48,40.386 4.26,15.61 6.41,32.809 6.41,51.614 l 0,208.3511 c -5.13,0.8711 -12.29,2.043 -21.48,3.5274 -9.2,1.5039 -19.56,2.8906 -31.09,4.1679 -11.54,1.2813 -24.04,2.4532 -37.51,3.5274 -13.46,1.0547 -26.82,1.6015 -40.06,1.6015 -18.82,0 -36.13,-1.9257 -51.93,-5.7617 -15.82,-3.8476 -29.49,-9.9414 -41.04,-18.2812 -11.54,-8.3324 -20.51,-19.3364 -26.92,-33.0074 -6.42,-13.672 -9.62,-30.137 -9.62,-49.375 0,-18.372 3.74,-34.18 11.22,-47.442 7.47,-13.242 17.63,-23.926 30.46,-32.051 12.81,-8.117 27.77,-14.101 44.87,-17.949 17.09,-3.848 35.04,-5.773 53.86,-5.773 5.98,0 12.17,0.324 18.58,0.965 6.42,0.636 12.51,1.503 18.28,2.562 5.77,1.074 10.79,2.031 15.06,2.891 4.27,0.859 7.26,1.504 8.98,1.914 l 0,-16.664 c 0,-9.825 -1.08,-19.555 -3.21,-29.172 -2.14,-9.613 -5.99,-18.16 -11.54,-25.645 -5.55,-7.468 -13.14,-13.461 -22.75,-17.949 -9.62,-4.488 -22.13,-6.734 -37.51,-6.734 -19.66,0 -36.87,1.398 -51.61,4.172 -14.75,2.781 -25.76,5.668 -33.01,8.652 l -7.05,-49.367 c 7.68,-3.41 20.51,-6.727 38.46,-9.934 17.94,-3.203 37.4,-4.805 58.34,-4.805"/>
        <path
            fill="#231f20"
            class="text"
            d="m 1487.91,173.743 c 13.67,-3.418 31.84,-7.051 54.49,-10.899 22.66,-3.847 48.73,-5.773 78.22,-5.773 26.49,0 48.5,3.75 66.03,11.222 17.52,7.477 31.51,17.95 41.99,31.411 10.47,13.464 17.84,29.605 22.12,48.402 4.27,18.812 6.41,39.539 6.41,62.184 l 0,187.2066 -59.62,0 0,-174.3746 c 0,-20.52 -1.4,-38.04 -4.17,-52.575 -2.78,-14.527 -7.37,-26.285 -13.78,-35.261 -6.42,-8.977 -14.97,-15.485 -25.64,-19.551 -10.7,-4.059 -23.94,-6.09 -39.76,-6.09 -6.41,0 -13.04,0.219 -19.86,0.641 -6.85,0.429 -13.37,0.961 -19.55,1.601 -6.22,0.637 -11.77,1.391 -16.68,2.246 -4.92,0.86 -8.44,1.496 -10.58,1.922 l 0,281.4416 -59.62,0 0,-323.7536"/>
    </g>
    <path fill="#f03b41" class="top" d="m 525.867,33.395 -511.7264,0 L 270,289.258 525.867,33.395"/>
    <path fill="#e3eb1f" class="left" d="M 0,47.532 0,559.2622 255.859,303.395 0,47.532"/>
    <path stroke="#231f20" stroke-width="10" class="bottom-border" d="M 540,47.543 14.1523,573.395 540,573.395 540,47.543 z"/>
    <path fill="#fff" class="bottom" d="M 540,47.543 14.1523,573.395 540,573.395 540,47.543"/>
</svg>
