<svg id="Layer_1" data-name="Layer 1" xmlns="http://www.w3.org/2000/svg" viewBox="0 0 126.78 46.83"><defs><style>.cls-1{fill:#4a5151;}.cls-2{fill:#ea562e;}</style></defs><title>310816_iod_logo</title><path class="cls-1" d="M0,.9H12.54v45H0Z"/><path class="cls-1" d="M84,.9h17.37c16.08,0,25.41,9.26,25.41,22.26v.13c0,13-9.46,22.64-25.67,22.64H84Zm17.56,34C109,34.87,114,30.75,114,23.48v-.13c0-7.2-5-11.39-12.42-11.39H96.48v22.9Z"/><path class="cls-2" d="M47.91,0C34,0,23.59,10.49,23.59,23.42v.13a23.5,23.5,0,0,0,.82,6.16L36.74,26.4a13.22,13.22,0,0,1-.35-3v-.13c0-6.5,4.57-12,11.39-12s11.58,5.66,11.58,12.16v.13c0,6.5-4.57,12-11.45,12a11.49,11.49,0,0,1-3.17-.45l-3,11a26.49,26.49,0,0,0,6,.68c13.89,0,24.32-10.49,24.32-23.42v-.13C72.1,10.36,61.8,0,47.91,0Z"/></svg>