<svg id="Layer_1" data-name="Layer 1" xmlns="http://www.w3.org/2000/svg" viewBox="0 0 311.01 46.83"><defs><style>.cls-1{fill:#4a5151;}.cls-2{fill:#ea562e;}</style></defs><title>310816_iod_logo</title><path class="cls-1" d="M184.23.9h12.54v45H184.23Z"/><path class="cls-1" d="M268.23.9H285.6C301.68.9,311,10.16,311,23.16v.13c0,13-9.46,22.64-25.67,22.64H268.23Zm17.56,34c7.46,0,12.42-4.12,12.42-11.38v-.13c0-7.2-5-11.39-12.42-11.39h-5.08v22.9Z"/><path class="cls-2" d="M232.14,0c-13.9,0-24.32,10.49-24.32,23.42v.13a23.5,23.5,0,0,0,.82,6.16L221,26.4a13.22,13.22,0,0,1-.35-3v-.13c0-6.5,4.57-12,11.39-12s11.58,5.66,11.58,12.16v.13c0,6.5-4.57,12-11.45,12a11.49,11.49,0,0,1-3.17-.45l-3,11a26.49,26.49,0,0,0,6,.68c13.89,0,24.32-10.49,24.32-23.42v-.13C256.33,10.36,246,0,232.14,0Z"/><path class="cls-1" d="M5.34,25.13a5.67,5.67,0,0,1-2.85-.69A4.58,4.58,0,0,1,.64,22.49,6.23,6.23,0,0,1,0,19.62a10,10,0,0,1,.27-2.27A9,9,0,0,1,1,15.28H3.6a17.7,17.7,0,0,0-.49,2.21,13.8,13.8,0,0,0-.18,2.15,3.41,3.41,0,0,0,.72,2.28,2.37,2.37,0,0,0,1.9.85h.58a2.8,2.8,0,0,0,2.23-.82,3.4,3.4,0,0,0,.71-2.31v-9H12v9q0,5.41-5.79,5.41ZM6,10.68a1.26,1.26,0,0,1-1-.38,1.45,1.45,0,0,1-.35-1,1.48,1.48,0,0,1,.35-1,1.26,1.26,0,0,1,1-.38,1.23,1.23,0,0,1,.94.37,1.47,1.47,0,0,1,.35,1,1.43,1.43,0,0,1-.36,1A1.23,1.23,0,0,1,6,10.68Z"/><path class="cls-1" d="M14.85,5.49h2.92V20.41H14.85Z"/><path class="cls-1" d="M28.44,18c.06,0,.1,0,.1.08v2.19a.08.08,0,0,1-.1.1H25.89v.32a4.5,4.5,0,0,1-1.12,3.21,3.9,3.9,0,0,1-3,1.19,6.72,6.72,0,0,1-1.85-.24A6.37,6.37,0,0,1,18.17,24l1.18-1.91a4,4,0,0,0,.92.45,3.21,3.21,0,0,0,1,.13,1.54,1.54,0,0,0,1.27-.6A2.34,2.34,0,0,0,23,20.58V10.69h2.92V18Z"/><path class="cls-1" d="M28.25,20.41a.08.08,0,0,1-.1-.1V18.13c0-.05,0-.08.1-.08h3.43V10.69H34.6v9.72Zm1.58,4.91a1.25,1.25,0,0,1-1-.38,1.45,1.45,0,0,1-.35-1,1.47,1.47,0,0,1,.35-1,1.25,1.25,0,0,1,1-.38,1.23,1.23,0,0,1,.95.37,1.48,1.48,0,0,1,.35,1,1.44,1.44,0,0,1-.35,1A1.24,1.24,0,0,1,29.83,25.32Zm3.34,0a1.25,1.25,0,0,1-1-.38,1.45,1.45,0,0,1-.35-1,1.47,1.47,0,0,1,.35-1,1.25,1.25,0,0,1,1-.38,1.23,1.23,0,0,1,1,.38,1.48,1.48,0,0,1,.35,1,1.44,1.44,0,0,1-.36,1A1.24,1.24,0,0,1,33.17,25.32Z"/><path class="cls-1" d="M37.45,5.49h2.92V20.41H37.45Z"/><path class="cls-2" d="M49,25.13a6.72,6.72,0,0,1-1.85-.24A6.37,6.37,0,0,1,45.35,24l1.18-1.91a4,4,0,0,0,.92.45,3.21,3.21,0,0,0,1,.13,1.54,1.54,0,0,0,1.27-.6,2.34,2.34,0,0,0,.48-1.51V10.69h2.92v10A4.5,4.5,0,0,1,52,23.94,3.9,3.9,0,0,1,49,25.13ZM51.46,9a1.26,1.26,0,0,1-1-.38,1.45,1.45,0,0,1-.35-1,1.48,1.48,0,0,1,.35-1,1.26,1.26,0,0,1,1-.38,1.23,1.23,0,0,1,.94.37,1.47,1.47,0,0,1,.35,1,1.43,1.43,0,0,1-.36,1A1.23,1.23,0,0,1,51.46,9Z"/><path class="cls-2" d="M61.29,18c.06,0,.1,0,.1.08v2.19a.08.08,0,0,1-.1.1H55.92V5.49h2.92V18Z"/><path class="cls-2" d="M61.1,20.41a.08.08,0,0,1-.1-.1V18.13c0-.05,0-.08.1-.08h2.45V10.69h2.92v9.72Zm3.75,4.91a1.26,1.26,0,0,1-1-.38,1.45,1.45,0,0,1-.35-1,1.47,1.47,0,0,1,.35-1,1.26,1.26,0,0,1,1-.38,1.23,1.23,0,0,1,.94.37,1.47,1.47,0,0,1,.35,1,1.44,1.44,0,0,1-.36,1A1.23,1.23,0,0,1,64.85,25.32Z"/><path class="cls-1" d="M78.11,20.6a5.22,5.22,0,0,1-3.64-1.14,4.35,4.35,0,0,1-1.25-3.37,6.39,6.39,0,0,1,.63-2.82,4.93,4.93,0,0,1,1.75-2,4.59,4.59,0,0,1,2.57-.73,4.36,4.36,0,0,1,2.43.71,5.2,5.2,0,0,1,1.78,2,6.11,6.11,0,0,1,.69,2.84,4.33,4.33,0,0,1-1.25,3.42A5.47,5.47,0,0,1,78.11,20.6Zm0-2.39a2,2,0,0,0,1.53-.55A2.44,2.44,0,0,0,80.11,16a4,4,0,0,0-.6-2.2,1.72,1.72,0,0,0-1.44-.94,1.7,1.7,0,0,0-1.43.91A4,4,0,0,0,76,16a2.41,2.41,0,0,0,.5,1.68A2,2,0,0,0,78.09,18.21Z"/><path class="cls-1" d="M84.43,18H91a12.17,12.17,0,0,0-1-2.93,6.79,6.79,0,0,0-1.48-1.93,7.55,7.55,0,0,0-2.19-1.35l1.1-2.75a9.38,9.38,0,0,1,4.21,3.26,14.68,14.68,0,0,1,2.3,5.78v2.28H84.43Z"/><path class="cls-1" d="M96.41,5.49h2.92V20.41H96.41Z"/><path class="cls-1" d="M101.4,18H108a12.17,12.17,0,0,0-1-2.93,6.79,6.79,0,0,0-1.48-1.93,7.55,7.55,0,0,0-2.19-1.35l1.1-2.75a9.38,9.38,0,0,1,4.21,3.26,14.68,14.68,0,0,1,2.3,5.78v2.28H101.4Z"/><path class="cls-1" d="M122.16,20.6a5.22,5.22,0,0,1-3.64-1.14,4.35,4.35,0,0,1-1.25-3.37,6.39,6.39,0,0,1,.63-2.82,4.93,4.93,0,0,1,1.75-2,4.59,4.59,0,0,1,2.57-.73,4.36,4.36,0,0,1,2.43.71,5.2,5.2,0,0,1,1.78,2,6.11,6.11,0,0,1,.69,2.84,4.33,4.33,0,0,1-1.25,3.42A5.47,5.47,0,0,1,122.16,20.6Zm0-2.39a2,2,0,0,0,1.53-.55,2.44,2.44,0,0,0,.49-1.67,4,4,0,0,0-.6-2.2,1.72,1.72,0,0,0-1.44-.94,1.7,1.7,0,0,0-1.43.91A4,4,0,0,0,120.1,16a2.41,2.41,0,0,0,.5,1.68A2,2,0,0,0,122.14,18.21Z"/><path class="cls-1" d="M134.94,18c.06,0,.1,0,.1.08v2.19a.08.08,0,0,1-.1.1h-5.38V5.49h2.92V18Z"/><path class="cls-1" d="M134.75,20.41a.08.08,0,0,1-.1-.1V18.13c0-.05,0-.08.1-.08h7.68V14.9a2.17,2.17,0,0,0-.82-1.82,3.69,3.69,0,0,0-2.31-.63H136V10.31a11.9,11.9,0,0,1,2.93-3.87,13.3,13.3,0,0,1,4.4-2.57l1.07,2.63A11.74,11.74,0,0,0,141.18,8,7.65,7.65,0,0,0,139,10.08h.75q5.6,0,5.6,4.44V18h2.55c.06,0,.1,0,.1.08v2.19a.08.08,0,0,1-.1.1ZM135.26,7A10.09,10.09,0,0,1,138,3.77a16,16,0,0,1,4.2-2.7l.57,1.51a13.86,13.86,0,0,0-2.89,1.54,15.43,15.43,0,0,0-2.53,2.13,8.41,8.41,0,0,0-1.55,2.15Z"/><path class="cls-1" d="M147.72,20.41a.08.08,0,0,1-.1-.1V18.13c0-.05,0-.08.1-.08h3.43V10.69h2.92v9.72Zm1.58,4.91a1.25,1.25,0,0,1-1-.38,1.45,1.45,0,0,1-.35-1,1.47,1.47,0,0,1,.35-1,1.25,1.25,0,0,1,1-.38,1.23,1.23,0,0,1,.95.37,1.48,1.48,0,0,1,.35,1,1.44,1.44,0,0,1-.35,1A1.24,1.24,0,0,1,149.3,25.32Zm3.34,0a1.25,1.25,0,0,1-1-.38,1.45,1.45,0,0,1-.35-1,1.47,1.47,0,0,1,.35-1,1.25,1.25,0,0,1,1-.38,1.23,1.23,0,0,1,1,.38,1.48,1.48,0,0,1,.35,1,1.44,1.44,0,0,1-.36,1A1.24,1.24,0,0,1,152.63,25.32Z"/><path class="cls-1" d="M162.3,18c.06,0,.1,0,.1.08v2.19a.08.08,0,0,1-.1.1h-5.38V5.49h2.92V18Z"/><path class="cls-1" d="M162.11,20.41a.08.08,0,0,1-.1-.1V18.13c0-.05,0-.08.1-.08h3.43V10.69h2.92v9.72Zm1.56,4a1.24,1.24,0,0,1-1-.38,1.7,1.7,0,0,1,0-2.07,1.24,1.24,0,0,1,1-.38,1.23,1.23,0,0,1,1,.38,1.47,1.47,0,0,1,.35,1,1.45,1.45,0,0,1-.36,1A1.24,1.24,0,0,1,163.67,24.4Zm1.67,2.47a1.12,1.12,0,0,1-.79-.3,1.44,1.44,0,0,1,0-1.81,1.14,1.14,0,0,1,.79-.29,1.05,1.05,0,0,1,.82.33,1.4,1.4,0,0,1,0,1.74A1.06,1.06,0,0,1,165.34,26.87ZM167,24.4a1.27,1.27,0,0,1-1-.37,1.71,1.71,0,0,1,0-2.08,1.25,1.25,0,0,1,1-.38,1.23,1.23,0,0,1,.94.37A1.7,1.7,0,0,1,168,24,1.23,1.23,0,0,1,167,24.4Z"/><path class="cls-1" d="M.38,32H3.45v14H.38Z"/><path class="cls-1" d="M7.34,32h6.38a5.56,5.56,0,0,1,4.07,1.42A4.38,4.38,0,0,1,19,36.58v0a4.33,4.33,0,0,1-3,4.33l3.41,5H15.81l-3-4.47H10.41v4.47H7.34Zm6.18,6.78c1.49,0,2.35-.8,2.35-2v0c0-1.32-.92-2-2.41-2H10.41v4Z"/><path class="cls-1" d="M27.75,31.87h2.83l6,14.06H33.35L32.07,42.8h-5.9L24.9,45.93H21.76ZM31,40.09l-1.85-4.53-1.85,4.53Z"/><path class="cls-1" d="M39.12,32H42l6.54,8.59V32h3v14H48.91l-6.76-8.87v8.87h-3Z"/><path class="cls-2" d="M72.24,32h5.7c3.33,0,5.34,2,5.34,4.83v0c0,3.23-2.51,4.91-5.64,4.91H75.31v4.19H72.24Zm5.5,7a2.16,2.16,0,0,0,2.43-2.11v0c0-1.38-1-2.11-2.49-2.11H75.31V39Z"/><path class="cls-2" d="M86,32H96.49v2.73H89v2.83H95.6v2.73H89V43.2h7.58v2.73H86Z"/><path class="cls-2" d="M100.13,32H103l6.54,8.59V32h3v14h-2.61l-6.76-8.87v8.87h-3Z"/><path class="cls-1" d="M116.69,32h5.44c4.39,0,7.42,3,7.42,6.94v0c0,3.93-3,7-7.42,7h-5.44Zm5.44,11.19A4,4,0,0,0,126.34,39v0a4,4,0,0,0-4.21-4.21h-2.37v8.41Z"/><path class="cls-1" d="M136.68,31.87h2.83l6,14.06h-3.21L141,42.8h-5.9l-1.28,3.13H130.7Zm3.23,8.21-1.85-4.53-1.85,4.53Z"/><path class="cls-1" d="M148.34,34.8h-4.25V32h11.57V34.8h-4.25V45.93h-3.07Z"/><path class="cls-1" d="M160.52,31.87h2.83l6,14.06h-3.21l-1.28-3.13h-5.9l-1.28,3.13h-3.13Zm3.23,8.21-1.85-4.53L160,40.09Z"/><path class="cls-2" d="M61.69,31.94a7,7,0,0,0-7.19,7v0a7.1,7.1,0,0,0,.24,1.8l3-.8a4.56,4.56,0,0,1-.13-1v0a4,4,0,0,1,4.05-4.2,4.1,4.1,0,0,1,4.09,4.24v0a4,4,0,0,1-4.05,4.2A4.1,4.1,0,0,1,60.55,43l-.72,2.7a7.83,7.83,0,0,0,1.82.22,7,7,0,0,0,7.19-7v0A6.92,6.92,0,0,0,61.69,31.94Z"/></svg>