<svg id="Layer_1" data-name="Layer 1" xmlns="http://www.w3.org/2000/svg" viewBox="0 0 188.3 134.18"><defs><style>.cls-1{fill:#4a5151;}.cls-2{fill:#ea562e;}</style></defs><title>310816_iod_logo</title><path class="cls-1" d="M.34,1.33H18.9V68H.34Z"/><path class="cls-1" d="M124.65,1.33h25.7C174.15,1.33,188,15,188,34.27v.19C188,53.7,174,68,150,68H124.65Zm26,50.27c11,0,18.38-6.09,18.38-16.85v-.19c0-10.66-7.33-16.85-18.38-16.85h-7.52V51.6Z"/><path class="cls-2" d="M71.72,0c-20.57,0-36,15.52-36,34.65v.19A34.77,34.77,0,0,0,36.94,44L55.2,39.07a19.56,19.56,0,0,1-.52-4.41v-.19c0-9.62,6.76-17.8,16.85-17.8s17.14,8.38,17.14,18v.19c0,9.62-6.76,17.8-16.95,17.8A17,17,0,0,1,67,52L62.65,68.3a39.21,39.21,0,0,0,8.87,1c20.56,0,36-15.52,36-34.65v-.19C107.51,15.33,92.28,0,71.72,0Z"/><path class="cls-1" d="M5.94,111a6.3,6.3,0,0,1-3.17-.77,5.09,5.09,0,0,1-2.06-2.16A6.93,6.93,0,0,1,0,104.93a11.11,11.11,0,0,1,.3-2.52,10,10,0,0,1,.82-2.31H4a19.68,19.68,0,0,0-.54,2.46,15.34,15.34,0,0,0-.2,2.39,3.79,3.79,0,0,0,.8,2.53,2.63,2.63,0,0,0,2.11.94h.65a3.12,3.12,0,0,0,2.48-.91,3.78,3.78,0,0,0,.79-2.56V95h3.25v10q0,6-6.44,6ZM6.66,95a1.4,1.4,0,0,1-1.08-.42,1.61,1.61,0,0,1-.39-1.15,1.64,1.64,0,0,1,.39-1.16,1.4,1.4,0,0,1,1.08-.42,1.37,1.37,0,0,1,1,.42,1.63,1.63,0,0,1,.39,1.16,1.6,1.6,0,0,1-.4,1.15A1.37,1.37,0,0,1,6.66,95Z"/><path class="cls-1" d="M16.52,89.21h3.25V105.8H16.52Z"/><path class="cls-1" d="M31.62,103.18c.07,0,.11,0,.11.09v2.43a.09.09,0,0,1-.11.11H28.79v.35a5,5,0,0,1-1.24,3.57A4.34,4.34,0,0,1,24.22,111a7.48,7.48,0,0,1-2.05-.27,7.09,7.09,0,0,1-2-1l1.31-2.12a4.49,4.49,0,0,0,1,.5,3.56,3.56,0,0,0,1.06.14,1.71,1.71,0,0,0,1.41-.67,2.6,2.6,0,0,0,.53-1.68V95h3.25v8.19Z"/><path class="cls-1" d="M31.41,105.8a.09.09,0,0,1-.11-.11v-2.43c0-.06,0-.09.11-.09h3.82V95h3.25V105.8Zm1.76,5.46a1.39,1.39,0,0,1-1.07-.42,1.61,1.61,0,0,1-.39-1.15,1.64,1.64,0,0,1,.39-1.16,1.39,1.39,0,0,1,1.07-.42,1.36,1.36,0,0,1,1.06.42,1.64,1.64,0,0,1,.38,1.16,1.6,1.6,0,0,1-.39,1.16A1.38,1.38,0,0,1,33.17,111.26Zm3.71,0a1.39,1.39,0,0,1-1.07-.42,1.61,1.61,0,0,1-.39-1.15,1.64,1.64,0,0,1,.39-1.16,1.39,1.39,0,0,1,1.07-.42,1.37,1.37,0,0,1,1.07.42,1.65,1.65,0,0,1,.38,1.16,1.6,1.6,0,0,1-.4,1.15A1.38,1.38,0,0,1,36.88,111.26Z"/><path class="cls-1" d="M41.65,89.21H44.9V105.8H41.65Z"/><path class="cls-2" d="M54.45,111a7.48,7.48,0,0,1-2.05-.27,7.09,7.09,0,0,1-2-1l1.31-2.12a4.49,4.49,0,0,0,1,.5,3.56,3.56,0,0,0,1.06.14,1.71,1.71,0,0,0,1.41-.67,2.6,2.6,0,0,0,.53-1.68V95H59v11.16a5,5,0,0,1-1.24,3.57A4.34,4.34,0,0,1,54.45,111Zm2.77-17.93a1.4,1.4,0,0,1-1.08-.42,1.61,1.61,0,0,1-.39-1.15,1.64,1.64,0,0,1,.39-1.16A1.4,1.4,0,0,1,57.22,90a1.37,1.37,0,0,1,1.05.42,1.63,1.63,0,0,1,.39,1.16,1.59,1.59,0,0,1-.4,1.15A1.37,1.37,0,0,1,57.22,93.11Z"/><path class="cls-2" d="M68.16,103.18c.07,0,.11,0,.11.09v2.43a.09.09,0,0,1-.11.11h-6V89.21h3.25v14Z"/><path class="cls-2" d="M67.95,105.8a.09.09,0,0,1-.11-.11v-2.43c0-.06,0-.09.11-.09h2.73V95h3.25V105.8Zm4.17,5.46a1.4,1.4,0,0,1-1.08-.42,1.61,1.61,0,0,1-.39-1.15,1.63,1.63,0,0,1,.39-1.16,1.4,1.4,0,0,1,1.08-.42,1.37,1.37,0,0,1,1.05.42,1.63,1.63,0,0,1,.39,1.16,1.6,1.6,0,0,1-.4,1.15A1.37,1.37,0,0,1,72.11,111.26Z"/><path class="cls-1" d="M86.86,106a5.8,5.8,0,0,1-4.05-1.27A4.84,4.84,0,0,1,81.42,101a7.11,7.11,0,0,1,.7-3.14,5.48,5.48,0,0,1,1.95-2.26,5.1,5.1,0,0,1,2.86-.82,4.85,4.85,0,0,1,2.7.79,5.78,5.78,0,0,1,2,2.27,6.8,6.8,0,0,1,.76,3.16A4.81,4.81,0,0,1,91,104.8,6.09,6.09,0,0,1,86.86,106Zm0-2.65a2.17,2.17,0,0,0,1.7-.61,2.72,2.72,0,0,0,.55-1.86,4.44,4.44,0,0,0-.67-2.45,1.91,1.91,0,0,0-1.6-1,1.89,1.89,0,0,0-1.59,1,4.46,4.46,0,0,0-.66,2.47,2.68,2.68,0,0,0,.56,1.87A2.22,2.22,0,0,0,86.84,103.36Z"/><path class="cls-1" d="M93.88,103.18h7.29a13.54,13.54,0,0,0-1.09-3.26,7.55,7.55,0,0,0-1.64-2.14A8.39,8.39,0,0,0,96,96.28l1.23-3.06a10.43,10.43,0,0,1,4.69,3.62,16.33,16.33,0,0,1,2.55,6.42v2.54H93.88Z"/><path class="cls-1" d="M107.21,89.21h3.25V105.8h-3.25Z"/><path class="cls-1" d="M112.76,103.18H120A13.54,13.54,0,0,0,119,99.92a7.55,7.55,0,0,0-1.64-2.14,8.39,8.39,0,0,0-2.44-1.5l1.23-3.06a10.43,10.43,0,0,1,4.69,3.62,16.33,16.33,0,0,1,2.55,6.42v2.54H112.76Z"/><path class="cls-1" d="M135.84,106a5.8,5.8,0,0,1-4.05-1.27,4.84,4.84,0,0,1-1.39-3.75,7.11,7.11,0,0,1,.7-3.14,5.48,5.48,0,0,1,1.95-2.26,5.1,5.1,0,0,1,2.86-.82,4.85,4.85,0,0,1,2.7.79,5.78,5.78,0,0,1,2,2.27,6.8,6.8,0,0,1,.76,3.16A4.81,4.81,0,0,1,140,104.8,6.09,6.09,0,0,1,135.84,106Zm0-2.65a2.17,2.17,0,0,0,1.7-.61,2.72,2.72,0,0,0,.55-1.86,4.44,4.44,0,0,0-.67-2.45,1.91,1.91,0,0,0-1.6-1,1.89,1.89,0,0,0-1.59,1,4.46,4.46,0,0,0-.66,2.47,2.68,2.68,0,0,0,.56,1.87A2.22,2.22,0,0,0,135.82,103.36Z"/><path class="cls-1" d="M150.06,103.18c.07,0,.11,0,.11.09v2.43a.09.09,0,0,1-.11.11h-6V89.21h3.25v14Z"/><path class="cls-1" d="M149.84,105.8a.09.09,0,0,1-.11-.11v-2.43c0-.06,0-.09.11-.09h8.54V99.67a2.41,2.41,0,0,0-.91-2,4.1,4.1,0,0,0-2.57-.7H151.2V94.57a13.24,13.24,0,0,1,3.26-4.3,14.79,14.79,0,0,1,4.89-2.85l1.19,2.92A13.06,13.06,0,0,0,157,92a8.51,8.51,0,0,0-2.41,2.28h.83q6.23,0,6.23,4.94v3.92h2.84c.07,0,.11,0,.11.09v2.43a.09.09,0,0,1-.11.11Zm.56-14.87a11.22,11.22,0,0,1,3-3.63,17.82,17.82,0,0,1,4.67-3l.63,1.67a15.41,15.41,0,0,0-3.21,1.71,17.16,17.16,0,0,0-2.81,2.37A9.35,9.35,0,0,0,151,92.44Z"/><path class="cls-1" d="M164.26,105.8a.09.09,0,0,1-.11-.11v-2.43c0-.06,0-.09.11-.09h3.82V95h3.25V105.8Zm1.76,5.46a1.39,1.39,0,0,1-1.07-.42,1.61,1.61,0,0,1-.39-1.15,1.64,1.64,0,0,1,.39-1.16,1.39,1.39,0,0,1,1.07-.42,1.36,1.36,0,0,1,1.06.42,1.64,1.64,0,0,1,.38,1.16,1.6,1.6,0,0,1-.39,1.16A1.38,1.38,0,0,1,166,111.26Zm3.71,0a1.39,1.39,0,0,1-1.07-.42,1.61,1.61,0,0,1-.39-1.15,1.64,1.64,0,0,1,.39-1.16,1.39,1.39,0,0,1,1.07-.42,1.37,1.37,0,0,1,1.07.42,1.65,1.65,0,0,1,.38,1.16,1.6,1.6,0,0,1-.4,1.15A1.38,1.38,0,0,1,169.73,111.26Z"/><path class="cls-1" d="M180.48,103.18c.07,0,.11,0,.11.09v2.43a.09.09,0,0,1-.11.11h-6V89.21h3.25v14Z"/><path class="cls-1" d="M180.26,105.8a.09.09,0,0,1-.11-.11v-2.43c0-.06,0-.09.11-.09h3.82V95h3.25V105.8Zm1.74,4.43a1.38,1.38,0,0,1-1.07-.43,1.89,1.89,0,0,1,0-2.3,1.38,1.38,0,0,1,1.08-.42,1.37,1.37,0,0,1,1.07.42,1.64,1.64,0,0,1,.38,1.15,1.61,1.61,0,0,1-.4,1.16A1.38,1.38,0,0,1,182,110.23Zm1.86,2.75a1.25,1.25,0,0,1-.88-.33,1.6,1.6,0,0,1,0-2,1.27,1.27,0,0,1,.88-.32,1.17,1.17,0,0,1,.91.37,1.55,1.55,0,0,1,0,1.93A1.17,1.17,0,0,1,183.86,113Zm1.87-2.75a1.41,1.41,0,0,1-1.08-.42,1.91,1.91,0,0,1,0-2.31,1.4,1.4,0,0,1,1.09-.42,1.37,1.37,0,0,1,1.05.42,1.89,1.89,0,0,1,0,2.31A1.37,1.37,0,0,1,185.72,110.23Z"/><path class="cls-1" d="M.42,118.66H3.83v15.52H.42Z"/><path class="cls-1" d="M8.16,118.66h7.09a6.18,6.18,0,0,1,4.52,1.57,4.87,4.87,0,0,1,1.33,3.55v0a4.82,4.82,0,0,1-3.33,4.81l3.79,5.54h-4l-3.33-5H11.58v5H8.16ZM15,126.2c1.66,0,2.62-.89,2.62-2.2v0c0-1.46-1-2.22-2.68-2.22H11.58v4.46Z"/><path class="cls-1" d="M30.85,118.55H34l6.65,15.63H37.08l-1.42-3.48H29.1l-1.42,3.48H24.2Zm3.59,9.13-2.06-5-2.06,5Z"/><path class="cls-1" d="M43.5,118.66h3.15l7.27,9.56v-9.56h3.37v15.52h-2.9l-7.52-9.87v9.87H43.5Z"/><path class="cls-2" d="M80.33,118.66h6.34c3.7,0,5.94,2.2,5.94,5.37v0c0,3.59-2.79,5.45-6.27,5.45H83.75v4.66H80.33Zm6.12,7.83a2.4,2.4,0,0,0,2.7-2.35v0c0-1.53-1.06-2.35-2.77-2.35H83.75v4.74Z"/><path class="cls-2" d="M95.6,118.66H107.3v3H99v3.15h7.32v3H99v3.26h8.43v3H95.6Z"/><path class="cls-2" d="M111.35,118.66h3.15l7.27,9.56v-9.56h3.37v15.52h-2.9l-7.52-9.87v9.87h-3.37Z"/><path class="cls-1" d="M129.76,118.66h6.05c4.88,0,8.25,3.35,8.25,7.72v0c0,4.37-3.37,7.76-8.25,7.76h-6.05Zm6.05,12.44a4.42,4.42,0,0,0,4.68-4.63v0a4.46,4.46,0,0,0-4.68-4.68h-2.64v9.36Z"/><path class="cls-1" d="M152,118.55h3.15l6.65,15.63h-3.57l-1.42-3.48h-6.56l-1.42,3.48h-3.48Zm3.59,9.13-2.06-5-2.06,5Z"/><path class="cls-1" d="M165,121.81h-4.72v-3.15h12.86v3.15h-4.72v12.37H165Z"/><path class="cls-1" d="M178.5,118.55h3.15l6.65,15.63h-3.57l-1.42-3.48h-6.56l-1.42,3.48h-3.48Zm3.59,9.13-2.06-5-2.06,5Z"/><path class="cls-2" d="M68.6,118.62a7.76,7.76,0,0,0-8,7.76v0a7.9,7.9,0,0,0,.26,2l3.34-.89a5.07,5.07,0,0,1-.15-1.15v0a4.49,4.49,0,0,1,4.5-4.68,4.56,4.56,0,0,1,4.55,4.72v0a4.49,4.49,0,0,1-4.5,4.68,4.56,4.56,0,0,1-1.27-.2l-.8,3a8.71,8.71,0,0,0,2,.24,7.76,7.76,0,0,0,8-7.76v0A7.69,7.69,0,0,0,68.6,118.62Z"/></svg>