<?xml version="1.0" standalone="no"?>
<!DOCTYPE svg PUBLIC "-//W3C//DTD SVG 20010904//EN"
 "http://www.w3.org/TR/2001/REC-SVG-20010904/DTD/svg10.dtd">
<svg version="1.0" xmlns="http://www.w3.org/2000/svg"
 width="700.000000pt" height="700.000000pt" viewBox="0 0 700.000000 700.000000"
 preserveAspectRatio="xMidYMid meet">
<metadata>
Created by potrace 1.11, written by Peter Selinger 2001-2013
</metadata>
<g transform="translate(0.000000,700.000000) scale(0.100000,-0.100000)"
fill="#000000" stroke="none">
<path d="M3249 6886 c-2 -2 -44 -7 -93 -11 -50 -4 -97 -8 -105 -10 -9 -1 -43
-6 -76 -9 -87 -10 -386 -72 -485 -101 -47 -14 -92 -27 -101 -29 -39 -10 -205
-70 -307 -113 -91 -37 -278 -127 -347 -166 -125 -70 -169 -97 -255 -156 -385
-262 -694 -573 -935 -941 -28 -41 -55 -84 -61 -95 -6 -11 -37 -65 -68 -119
-66 -116 -78 -141 -186 -391 -73 -170 -171 -543 -195 -740 -3 -27 -8 -59 -10
-70 -19 -94 -27 -598 -12 -730 4 -33 10 -82 12 -110 5 -42 15 -116 20 -135 1
-3 5 -30 9 -60 10 -65 9 -60 36 -175 28 -116 28 -117 38 -111 5 3 19 7 33 9
22 5 340 89 669 179 80 22 188 51 240 64 52 14 102 27 110 29 61 17 255 69
350 94 207 55 360 98 364 102 3 2 0 24 -5 49 -29 145 -37 241 -34 415 3 180 5
202 36 360 20 101 74 292 89 310 4 6 11 21 15 35 4 14 29 69 56 122 152 303
397 552 689 702 148 75 320 135 440 152 17 2 45 6 63 9 124 20 419 20 486 1 9
-3 36 -8 61 -11 75 -10 200 -45 292 -80 386 -149 695 -436 882 -818 55 -112
116 -276 131 -352 5 -22 9 -42 10 -45 60 -216 64 -598 8 -830 -8 -36 -17 -76
-20 -89 -6 -36 -64 -213 -78 -241 -7 -14 -32 -65 -56 -115 -75 -158 -204 -334
-329 -452 -99 -93 -124 -113 -220 -176 -285 -188 -581 -269 -945 -262 -156 4
-170 5 -295 32 -141 29 -123 36 -149 -59 -13 -45 -25 -90 -26 -98 -2 -8 -45
-168 -95 -355 -50 -187 -102 -380 -115 -430 -13 -49 -40 -151 -60 -225 -20
-74 -49 -182 -64 -240 -16 -58 -31 -115 -35 -127 -5 -17 -1 -22 26 -28 18 -4
38 -9 44 -10 32 -8 256 -45 304 -51 30 -3 66 -7 80 -9 197 -24 732 -24 820 0
8 3 46 7 85 11 38 3 73 8 76 10 4 2 27 6 50 9 141 18 443 95 609 155 47 17 99
36 115 42 59 20 278 120 355 161 147 80 138 74 275 162 78 50 257 179 291 210
6 5 30 26 54 45 76 63 174 156 266 251 430 449 735 1040 849 1644 13 71 27
153 30 180 4 28 8 61 11 75 25 157 25 676 -1 810 -2 10 -6 41 -10 71 -15 126
-75 406 -103 479 -5 14 -10 28 -10 33 -3 46 -128 360 -206 514 -350 697 -956
1262 -1676 1563 -41 17 -84 35 -95 40 -70 29 -263 93 -345 114 -14 4 -50 14
-80 22 -30 9 -66 18 -80 20 -14 2 -43 9 -65 14 -85 21 -229 44 -350 56 -33 3
-71 8 -85 11 -28 6 -605 14 -611 9z"/>
</g>
</svg>
